<?xml version="1.0" encoding="UTF-8"?>
<svg width="94px" height="62px" viewBox="0 0 94 62" version="1.1" xmlns="http://www.w3.org/2000/svg" xmlns:xlink="http://www.w3.org/1999/xlink">
    <!-- Generator: Sketch 58 (84663) - https://sketch.com -->
    <title>logo</title>
    <desc>Created with Sketch.</desc>
    <g id="Page-1" stroke="none" stroke-width="1" fill="none" fill-rule="evenodd">
        <g id="logo" fill-rule="nonzero">
            <path d="M44.8818,48.8568 C44.8818,48.8568 41.6218,19.8898 67.6498,5.0448 L51.5168,48.8568 L44.8818,48.8568 Z" id="Fill-1" fill="#55B9E5"></path>
            <path d="M45.7832,49.2669 C45.7832,49.2669 43.4242,21.2829 67.2362,5.9219 L52.4172,49.2669 L45.7832,49.2669 Z" id="Fill-3" fill="#1494DB"></path>
            <path d="M46.8887,49.2669 C46.8887,49.2669 45.9077,23.5669 67.2367,6.7459 L53.5227,49.2669 L46.8887,49.2669 Z" id="Fill-5" fill="#0071BD"></path>
            <path d="M26.526,6.7459 C31.100716,10.3537246 34.649102,14.3700109 37.400969,18.4535712 L37.4,22.78 L40.023092,22.7799991 C47.161522,35.9321952 46.895637,48.5366137 46.874991,49.2363366 L46.874,49.2669 L40.24,49.2669 L26.526,6.7459 Z" id="Combined-Shape" fill="#0071BD"></path>
            <path d="M17.9248,0.1371 C19.1988,0.1371 20.3018,0.2231 21.2288,0.3981 C22.1558,0.5711 22.9678,0.9071 23.6638,1.3971 C24.3598,1.8891 24.9818,2.5571 25.5328,3.3971 C26.0838,4.2401 26.6498,5.3541 27.2298,6.7451 L45.3158,48.4841 C45.5478,49.0051 45.9518,49.2671 46.5318,49.2671 L47.5768,49.2671 C48.1558,49.2671 48.5628,49.0051 48.7938,48.4841 L66.8808,6.7451 C67.4588,5.3541 68.0248,4.2401 68.5758,3.3971 C69.1268,2.5571 69.7498,1.8891 70.4458,1.3971 C71.1418,0.9071 71.9388,0.5711 72.8378,0.3981 C73.7358,0.2231 74.8228,0.1371 76.0988,0.1371 L85.4028,0.1371 C88.4158,0.1371 90.4468,0.8181 91.4898,2.1801 C92.5328,3.5421 93.0558,5.8761 93.0558,9.1791 L93.0558,59.0921 C93.0558,60.3671 92.3878,61.0061 91.0548,61.0061 L82.1858,61.0061 C80.9088,61.0061 80.2728,60.3671 80.2728,59.0921 L80.2728,13.7011 C80.2728,13.1221 80.0398,12.8311 79.5768,12.8311 L78.7938,12.8311 C78.2138,12.8311 77.8378,13.0641 77.6638,13.5291 L60.0988,52.4841 C59.4028,54.0501 58.6928,55.3691 57.9678,56.4411 C57.2418,57.5151 56.4598,58.3981 55.6198,59.0921 C54.7788,59.7891 53.8218,60.2821 52.7508,60.5701 C51.6768,60.8611 50.4168,61.0061 48.9678,61.0061 L44.7938,61.0061 C43.3438,61.0061 42.0828,60.8611 41.0118,60.5701 C39.9388,60.2821 38.9818,59.7891 38.1418,59.0921 C37.3008,58.3981 36.5188,57.5151 35.7948,56.4411 C35.0698,55.3691 34.3608,54.0501 33.6638,52.4841 L16.0978,13.5291 C15.9248,13.0641 15.5458,12.8311 14.9678,12.8311 L14.1858,12.8311 C13.7208,12.8311 13.4888,13.1221 13.4888,13.7011 L13.4888,59.0921 C13.4888,60.3671 12.8518,61.0061 11.5768,61.0061 L2.7068,61.0061 C1.3728,61.0061 0.7068,60.3671 0.7068,59.0921 L0.7068,9.1791 C0.7068,5.8761 1.2298,3.5421 2.2728,2.1801 C3.3158,0.8181 5.3738,0.1371 8.4458,0.1371 L17.9248,0.1371 Z" id="Fill-21" fill="#F6931E"></path>
            <polygon id="Fill-63" fill="#F6931E" points="38.722 21.707 43.248 21.707 43.248 17.182 38.722 17.182"></polygon>
            <polygon id="Fill-64" fill="#F6931E" points="42.13 15.447 45.16 15.447 45.16 12.418 42.13 12.418"></polygon>
            <polygon id="Fill-65" fill="#F6931E" points="47.614 16.467 49.654 16.467 49.654 14.426 47.614 14.426"></polygon>
        </g>
    </g>
</svg>