<?xml version="1.0" encoding="UTF-8"?>
<svg width="254px" height="116px" viewBox="0 0 254 116" version="1.1" xmlns="http://www.w3.org/2000/svg" xmlns:xlink="http://www.w3.org/1999/xlink">
    <!-- Generator: Sketch 58 (84663) - https://sketch.com -->
    <title>Attachment 1_MARCUS</title>
    <desc>Created with Sketch.</desc>
    <g id="Page-1" stroke="none" stroke-width="1" fill="none" fill-rule="evenodd">
        <g id="Attachment-1_MARCUS">
            <path d="M117.8818,48.8568 C117.8818,48.8568 114.6218,19.8898 140.6498,5.0448 L124.5168,48.8568 L117.8818,48.8568 Z" id="Fill-1" fill="#55B9E5"></path>
            <path d="M118.7832,49.2669 C118.7832,49.2669 116.4242,21.2829 140.2362,5.9219 L125.4172,49.2669 L118.7832,49.2669 Z" id="Fill-3" fill="#1494DB"></path>
            <path d="M119.8887,49.2669 C119.8887,49.2669 118.9077,23.5669 140.2367,6.7459 L126.5227,49.2669 L119.8887,49.2669 Z" id="Fill-5" fill="#0071BD"></path>
            <path d="M99.526,6.7459 C104.100716,10.3537246 107.649102,14.3700109 110.400969,18.4535712 L110.4,22.78 L113.023092,22.7799991 C120.161522,35.9321952 119.895637,48.5366137 119.874991,49.2363366 L119.874,49.2669 L113.24,49.2669 Z" id="Combined-Shape" fill="#0071BD"></path>
            <path d="M9.5176,67.4769 C10.1756,67.4769 10.7446,67.5219 11.2246,67.6119 C11.7026,67.7019 12.1226,67.8739 12.4816,68.1279 C12.8416,68.3839 13.1626,68.7279 13.4476,69.1619 C13.7316,69.5959 14.0236,70.1709 14.3236,70.8899 L23.6656,92.4509 C23.7846,92.7199 23.9956,92.8549 24.2946,92.8549 L24.8336,92.8549 C25.1326,92.8549 25.3426,92.7199 25.4626,92.4509 L34.8046,70.8899 C35.1036,70.1709 35.3956,69.5959 35.6806,69.1619 C35.9656,68.7279 36.2876,68.3839 36.6466,68.1279 C37.0056,67.8739 37.4176,67.7019 37.8816,67.6119 C38.3456,67.5219 38.9076,67.4769 39.5656,67.4769 L44.3716,67.4769 C45.9296,67.4769 46.9766,67.8299 47.5166,68.5329 C48.0556,69.2379 48.3246,70.4409 48.3246,72.1479 L48.3246,97.9299 C48.3246,98.5889 47.9806,98.9179 47.2916,98.9179 L42.7096,98.9179 C42.0516,98.9179 41.7226,98.5889 41.7226,97.9299 L41.7226,74.4839 C41.7226,74.1859 41.6016,74.0349 41.3626,74.0349 L40.9586,74.0349 C40.6596,74.0349 40.4646,74.1559 40.3746,74.3939 L31.3016,94.5169 C30.9416,95.3249 30.5756,96.0059 30.2006,96.5599 C29.8266,97.1149 29.4216,97.5709 28.9886,97.9299 C28.5536,98.2889 28.0596,98.5439 27.5056,98.6939 C26.9516,98.8429 26.2996,98.9179 25.5526,98.9179 L23.3956,98.9179 C22.6476,98.9179 21.9966,98.8429 21.4426,98.6939 C20.8886,98.5439 20.3936,98.2889 19.9596,97.9299 C19.5256,97.5709 19.1216,97.1149 18.7466,96.5599 C18.3726,96.0059 18.0056,95.3249 17.6466,94.5169 L8.5746,74.3939 C8.4846,74.1559 8.2886,74.0349 7.9906,74.0349 L7.5856,74.0349 C7.3456,74.0349 7.2266,74.1859 7.2266,74.4839 L7.2266,97.9299 C7.2266,98.5889 6.8966,98.9179 6.2386,98.9179 L1.6576,98.9179 C0.9676,98.9179 0.6236,98.5889 0.6236,97.9299 L0.6236,72.1479 C0.6236,70.4409 0.8936,69.2379 1.4326,68.5329 C1.9716,67.8299 3.0336,67.4769 4.6216,67.4769 L9.5176,67.4769 Z" id="Fill-9" fill="#0171BD"></path>
            <path d="M65.4834,87.3294 L80.9344,87.3294 L73.7934,74.1694 C73.6714,73.9614 73.5064,73.8544 73.2984,73.8544 L73.0294,73.8544 C72.8194,73.8544 72.6534,73.9614 72.5354,74.1694 L65.4834,87.3294 Z M74.1964,67.4764 C75.3334,67.4764 76.2924,67.7104 77.0714,68.1734 C77.8484,68.6384 78.6124,69.5434 79.3624,70.8904 L94.2284,97.8854 C94.37803,98.1844 94.4154,98.4324 94.3404,98.6264 C94.2654,98.8204 94.0484,98.9184 93.6894,98.9184 L87.9854,98.9184 C87.4754,98.9184 87.1314,98.7244 86.9524,98.3344 L83.7634,92.5404 L62.6534,92.5404 L59.5534,98.3344 C59.3444,98.7244 59.0004,98.9184 58.5204,98.9184 L52.6814,98.9184 C52.2924,98.9184 52.0604,98.8204 51.9854,98.6264 C51.9104,98.4324 51.9479925,98.1844 52.0974,97.8854 L66.8304,70.8904 C67.5784,69.5434 68.3124,68.6384 69.0314,68.1734 C69.7504,67.7104 70.5874,67.4764 71.5464,67.4764 L74.1964,67.4764 Z" id="Fill-11" fill="#0171BD"></path>
            <path d="M104.9189,83.512 L122.1209,83.512 C123.6479,83.512 124.7269,83.183 125.3559,82.524 C125.9839,81.866 126.2989,80.862 126.2989,79.514 L126.2989,77.628 C126.2989,76.281 125.9839,75.279 125.3559,74.618 C124.7269,73.961 123.6479,73.63 122.1209,73.63 L105.5019,73.63 C105.1129,73.63 104.9189,73.81 104.9189,74.169 L104.9189,83.512 Z M123.5139,67.477 C126.9559,67.477 129.4269,68.256 130.9239,69.813 C132.4209,71.37 133.1699,73.675 133.1699,76.73 L133.1699,79.289 C133.1699,81.866 132.6459,83.901 131.5979,85.399 C130.5499,86.897 128.8429,87.854 126.4789,88.273 L134.1579,97.795 C134.3079,97.945 134.3529,98.169 134.2929,98.469 C134.2319,98.769 133.9929,98.918 133.5739,98.918 L127.7809,98.918 C127.3909,98.918 127.1209,98.873 126.9729,98.783 C126.8209,98.694 126.6719,98.544 126.5229,98.334 L119.4269,88.991 L104.9189,88.991 L104.9189,97.93 C104.9189,98.589 104.5879,98.918 103.9309,98.918 L99.0789,98.918 C98.3909,98.918 98.0459,98.589 98.0459,97.93 L98.0459,68.824 C98.0459,67.926 98.4949,67.477 99.3939,67.477 L123.5139,67.477 Z" id="Fill-13" fill="#0171BD"></path>
            <path d="M170.3594,67.4769 C171.0184,67.4769 171.3474,67.8069 171.3474,68.4649 L171.3474,72.8669 C171.3474,73.5569 171.0184,73.8999 170.3594,73.8999 L150.3734,73.8999 C149.2054,73.8999 148.2394,73.9979 147.4754,74.1919 C146.7124,74.3879 146.1054,74.7169 145.6564,75.1799 C145.2074,75.6449 144.8854,76.2669 144.6914,77.0439 C144.4954,77.8239 144.3994,78.8119 144.3994,80.0079 L144.3994,86.3869 C144.3994,87.5839 144.4954,88.5809 144.6914,89.3729 C144.8854,90.1669 145.2074,90.7959 145.6564,91.2599 C146.1054,91.7239 146.7124,92.0539 147.4754,92.2479 C148.2394,92.4429 149.2054,92.5399 150.3734,92.5399 L170.3594,92.5399 C171.0184,92.5399 171.3474,92.8699 171.3474,93.5289 L171.3474,97.9299 C171.3474,98.5889 171.0184,98.9179 170.3594,98.9179 L150.1034,98.9179 C147.8274,98.9179 145.8964,98.7079 144.3094,98.2889 C142.7214,97.8709 141.4264,97.1889 140.4234,96.2459 C139.4214,95.3019 138.6874,94.0749 138.2224,92.5629 C137.7584,91.0499 137.5264,89.2159 137.5264,87.0599 L137.5264,79.3339 C137.5264,77.1789 137.7584,75.3529 138.2224,73.8549 C138.6874,72.3589 139.4214,71.1369 140.4234,70.1939 C141.4264,69.2509 142.7214,68.5639 144.3094,68.1279 C145.8964,67.6949 147.8274,67.4769 150.1034,67.4769 L170.3594,67.4769 Z" id="Fill-15" fill="#0171BD"></path>
            <path d="M181.9492,67.4769 C182.6062,67.4769 182.9372,67.8069 182.9372,68.4649 L182.9372,86.3869 C182.9372,87.5839 183.0332,88.5809 183.2292,89.3729 C183.4242,90.1669 183.7462,90.7959 184.1952,91.2599 C184.6442,91.7239 185.2512,92.0539 186.0142,92.2479 C186.7772,92.4429 187.7432,92.5399 188.9112,92.5399 L201.3532,92.5399 C202.5212,92.5399 203.4862,92.4429 204.2502,92.2479 C205.0132,92.0539 205.6202,91.7239 206.0692,91.2599 C206.5182,90.7959 206.8332,90.1669 207.0122,89.3729 C207.1922,88.5809 207.2822,87.5839 207.2822,86.3869 L207.2822,68.4649 C207.2822,67.8069 207.6102,67.4769 208.2692,67.4769 L213.1652,67.4769 C213.8242,67.4769 214.1532,67.8069 214.1532,68.4649 L214.1532,87.0599 C214.1532,89.2159 213.9282,91.0499 213.4792,92.5629 C213.0302,94.0749 212.3032,95.3019 211.3012,96.2459 C210.2982,97.1889 208.9952,97.8709 207.3942,98.2889 C205.7912,98.7079 203.8522,98.9179 201.5782,98.9179 L188.6412,98.9179 C186.3662,98.9179 184.4342,98.7079 182.8472,98.2889 C181.2612,97.8709 179.9662,97.1889 178.9622,96.2459 C177.9592,95.3019 177.2252,94.0749 176.7622,92.5629 C176.2972,91.0499 176.0652,89.2159 176.0652,87.0599 L176.0652,68.4649 C176.0652,67.8069 176.4092,67.4769 177.0982,67.4769 L181.9492,67.4769 Z" id="Fill-17" fill="#0171BD"></path>
            <path d="M251.2549,67.4769 C251.9119,67.4769 252.2409,67.8069 252.2409,68.4649 L252.2409,72.7319 C252.2409,73.3919 251.9119,73.7199 251.2549,73.7199 L228.7509,73.7199 C227.8819,73.7199 227.2689,73.9449 226.9089,74.3939 C226.5499,74.8429 226.3699,75.4579 226.3699,76.2359 L226.3699,77.7629 C226.3699,79.4409 227.1499,80.2779 228.7059,80.2779 L245.5499,80.2779 C248.1549,80.2779 250.1149,80.9459 251.4339,82.2769 C252.7499,83.6099 253.4089,85.5179 253.4089,88.0029 L253.4089,91.5969 C253.4089,93.7829 252.7659,95.5489 251.4789,96.8969 C250.1909,98.2449 248.1839,98.9179 245.4599,98.9179 L220.5759,98.9179 C219.8879,98.9179 219.5429,98.5889 219.5429,97.9299 L219.5429,93.6639 C219.5429,93.0039 219.8879,92.6749 220.5759,92.6749 L244.1569,92.6749 C245.0249,92.6749 245.6399,92.4509 245.9989,92.0009 C246.3589,91.5519 246.5379,90.9379 246.5379,90.1599 L246.5379,88.3179 C246.5379,86.6409 245.7589,85.8029 244.2019,85.8029 L227.3589,85.8029 C224.7539,85.8029 222.7919,85.1359 221.4749,83.8039 C220.1569,82.4729 219.4979,80.5639 219.4979,78.0779 L219.4979,74.7979 C219.4979,72.6139 220.1429,70.8449 221.4299,69.4979 C222.7179,68.1509 224.7239,67.4769 227.4479,67.4769 L251.2549,67.4769 Z" id="Fill-19" fill="#0171BD"></path>
            <path d="M90.9248,0.1371 C92.1988,0.1371 93.3018,0.2231 94.2288,0.3981 C95.1558,0.5711 95.9678,0.9071 96.6638,1.3971 C97.3598,1.8891 97.9818,2.5571 98.5328,3.3971 C99.0838,4.2401 99.6498,5.3541 100.2298,6.7451 L118.3158,48.4841 C118.5478,49.0051 118.9518,49.2671 119.5318,49.2671 L120.5768,49.2671 C121.1558,49.2671 121.5628,49.0051 121.7938,48.4841 L139.8808,6.7451 C140.4588,5.3541 141.0248,4.2401 141.5758,3.3971 C142.1268,2.5571 142.7498,1.8891 143.4458,1.3971 C144.1418,0.9071 144.9388,0.5711 145.8378,0.3981 C146.7358,0.2231 147.8228,0.1371 149.0988,0.1371 L158.4028,0.1371 C161.4158,0.1371 163.4468,0.8181 164.4898,2.1801 C165.5328,3.5421 166.0558,5.8761 166.0558,9.1791 L166.0558,59.0921 C166.0558,60.3671 165.3878,61.0061 164.0548,61.0061 L155.1858,61.0061 C153.9088,61.0061 153.2728,60.3671 153.2728,59.0921 L153.2728,13.7011 C153.2728,13.1221 153.0398,12.8311 152.5768,12.8311 L151.7938,12.8311 C151.2138,12.8311 150.8378,13.0641 150.6638,13.5291 L133.0988,52.4841 C132.4028,54.0501 131.6928,55.3691 130.9678,56.4411 C130.2418,57.5151 129.4598,58.3981 128.6198,59.0921 C127.7788,59.7891 126.8218,60.2821 125.7508,60.5701 C124.6768,60.8611 123.4168,61.0061 121.9678,61.0061 L117.7938,61.0061 C116.3438,61.0061 115.0828,60.8611 114.0118,60.5701 C112.9388,60.2821 111.9818,59.7891 111.1418,59.0921 C110.3008,58.3981 109.5188,57.5151 108.7948,56.4411 C108.0698,55.3691 107.3608,54.0501 106.6638,52.4841 L89.0978,13.5291 C88.9248,13.0641 88.5458,12.8311 87.9678,12.8311 L87.1858,12.8311 C86.7208,12.8311 86.4888,13.1221 86.4888,13.7011 L86.4888,59.0921 C86.4888,60.3671 85.8518,61.0061 84.5768,61.0061 L75.7068,61.0061 C74.3728,61.0061 73.7068,60.3671 73.7068,59.0921 L73.7068,9.1791 C73.7068,5.8761 74.2298,3.5421 75.2728,2.1801 C76.3158,0.8181 78.3738,0.1371 81.4458,0.1371 L90.9248,0.1371 Z" id="Fill-21" fill="#F6931E"></path>
            <path d="M2.5566,106.4876 C2.7006,106.4876 2.8066,106.5416 2.8786,106.6486 L6.4656,111.4836 L10.0796,106.6486 C10.1516,106.5416 10.2586,106.4876 10.4016,106.4876 L12.1616,106.4876 C12.2326,106.4876 12.2826,106.5166 12.3086,106.5756 C12.3356,106.6336 12.3276,106.6936 12.2826,106.7566 L7.4596,112.9976 L7.4596,115.5686 C7.4596,115.7646 7.3616,115.8636 7.1636,115.8636 L5.7136,115.8636 C5.5076,115.8636 5.4046,115.7646 5.4046,115.5686 L5.4046,112.9976 L0.6356,106.7566 C0.590636759,106.6936 0.5796,106.6336 0.6016,106.5756 C0.6246,106.5166 0.6766,106.4876 0.7566,106.4876 L2.5566,106.4876 Z" id="Fill-23" fill="#F6931E"></path>
            <path d="M15.9771,112.18 C15.9771,112.528 16.0061,112.822 16.0641,113.057 C16.1231,113.294 16.2191,113.482 16.3531,113.619 C16.4881,113.758 16.6681,113.857 16.8971,113.914 C17.1261,113.973 17.4141,114.001 17.7631,114.001 L21.7531,114.001 C22.1031,114.001 22.3921,113.973 22.6201,113.914 C22.8481,113.857 23.0301,113.758 23.1641,113.619 C23.2981,113.482 23.3941,113.294 23.4531,113.057 C23.5111,112.822 23.5401,112.528 23.5401,112.18 L23.5401,110.171 C23.5401,109.824 23.5111,109.532 23.4531,109.294 C23.3941,109.057 23.2981,108.869 23.1641,108.732 C23.0301,108.593 22.8481,108.495 22.6201,108.437 C22.3921,108.378 22.1031,108.35 21.7531,108.35 L17.7631,108.35 C17.4141,108.35 17.1261,108.378 16.8971,108.437 C16.6681,108.495 16.4881,108.593 16.3531,108.732 C16.2191,108.869 16.1231,109.057 16.0641,109.294 C16.0061,109.532 15.9771,109.824 15.9771,110.171 L15.9771,112.18 Z M21.8341,106.488 C22.5151,106.488 23.0941,106.553 23.5741,106.683 C24.0521,106.813 24.4421,107.017 24.7421,107.299 C25.0421,107.579 25.2591,107.944 25.3941,108.39 C25.5281,108.836 25.5951,109.381 25.5951,110.024 L25.5951,112.327 C25.5951,112.97 25.5281,113.518 25.3941,113.968 C25.2591,114.419 25.0421,114.785 24.7421,115.066 C24.4421,115.348 24.0521,115.551 23.5741,115.676 C23.0941,115.801 22.5151,115.864 21.8341,115.864 L17.6831,115.864 C17.0021,115.864 16.4251,115.801 15.9501,115.676 C15.4751,115.551 15.0881,115.348 14.7881,115.066 C14.4881,114.785 14.2691,114.419 14.1301,113.968 C13.9911,113.518 13.9221,112.97 13.9221,112.327 L13.9221,110.024 C13.9221,109.381 13.9911,108.836 14.1301,108.39 C14.2691,107.944 14.4881,107.579 14.7881,107.299 C15.0881,107.017 15.4751,106.813 15.9501,106.683 C16.4251,106.553 17.0021,106.488 17.6831,106.488 L21.8341,106.488 Z" id="Fill-25" fill="#F6931E"></path>
            <path d="M30.3369,106.4876 C30.5339,106.4876 30.6329,106.5866 30.6329,106.7826 L30.6329,112.1266 C30.6329,112.4826 30.6609,112.7796 30.7199,113.0166 C30.7779,113.2546 30.8739,113.4416 31.0089,113.5796 C31.1429,113.7176 31.3239,113.8166 31.5529,113.8746 C31.7809,113.9326 32.0699,113.9616 32.4199,113.9616 L36.1399,113.9616 C36.4889,113.9616 36.7779,113.9326 37.0059,113.8746 C37.2349,113.8166 37.4179,113.7176 37.5509,113.5796 C37.6859,113.4416 37.7789,113.2546 37.8339,113.0166 C37.8869,112.7796 37.9139,112.4826 37.9139,112.1266 L37.9139,106.7826 C37.9139,106.5866 38.0129,106.4876 38.2099,106.4876 L39.6729,106.4876 C39.8709,106.4876 39.9689,106.5866 39.9689,106.7826 L39.9689,112.3276 C39.9689,112.9696 39.9019,113.5176 39.7679,113.9676 C39.6329,114.4196 39.4169,114.7856 39.1159,115.0656 C38.8159,115.3476 38.4269,115.5506 37.9479,115.6756 C37.4669,115.8006 36.8879,115.8636 36.2069,115.8636 L32.3379,115.8636 C31.6579,115.8636 31.0799,115.8006 30.6059,115.6756 C30.1309,115.5506 29.7439,115.3476 29.4429,115.0656 C29.1439,114.7856 28.9239,114.4196 28.7849,113.9676 C28.6469,113.5176 28.5769,112.9696 28.5769,112.3276 L28.5769,106.7826 C28.5769,106.5866 28.6799,106.4876 28.8859,106.4876 L30.3369,106.4876 Z" id="Fill-27" fill="#F6931E"></path>
            <path d="M45.1284,111.2689 L50.2734,111.2689 C50.7304,111.2689 51.0524,111.1719 51.2404,110.9749 C51.4274,110.7789 51.5224,110.4799 51.5224,110.0779 L51.5224,109.5149 C51.5224,109.1139 51.4274,108.8139 51.2404,108.6179 C51.0524,108.4219 50.7304,108.3239 50.2734,108.3239 L45.3024,108.3239 C45.1854,108.3239 45.1284,108.3769 45.1284,108.4829 L45.1284,111.2689 Z M50.6894,106.4879 C51.7194,106.4879 52.4584,106.7199 52.9064,107.1839 C53.3544,107.6489 53.5774,108.3359 53.5774,109.2469 L53.5774,110.0099 C53.5774,110.7789 53.4204,111.3849 53.1074,111.8319 C52.7944,112.2789 52.2834,112.5639 51.5764,112.6889 L53.8734,115.5289 C53.9184,115.5739 53.9314,115.6399 53.9134,115.7299 C53.8954,115.8189 53.8234,115.8639 53.6984,115.8639 L51.9654,115.8639 C51.8494,115.8639 51.7684,115.8489 51.7234,115.8239 C51.6784,115.7959 51.6334,115.7519 51.5894,115.6889 L49.4674,112.9039 L45.1284,112.9039 L45.1284,115.5689 C45.1284,115.7649 45.0294,115.8639 44.8324,115.8639 L43.3814,115.8639 C43.1754,115.8639 43.0734,115.7649 43.0734,115.5689 L43.0734,106.8899 C43.0734,106.6219 43.2064,106.4879 43.4764,106.4879 L50.6894,106.4879 Z" id="Fill-29" fill="#F6931E"></path>
            <path d="M71.9795,106.4876 C72.1855,106.4876 72.2895,106.5866 72.2895,106.7826 L72.2895,108.0546 C72.2895,108.2516 72.1855,108.3496 71.9795,108.3496 L66.1505,108.3496 C65.8005,108.3496 65.5115,108.3786 65.2835,108.4366 C65.0545,108.4956 64.8745,108.5926 64.7395,108.7316 C64.6055,108.8696 64.5085,109.0566 64.4515,109.2946 C64.3925,109.5316 64.3635,109.8236 64.3635,110.1716 L64.3635,110.4396 L71.9135,110.4396 C72.1095,110.4396 72.2085,110.5386 72.2085,110.7336 L72.2085,111.7926 C72.2085,111.9876 72.1095,112.0866 71.9135,112.0866 L64.3635,112.0866 L64.3635,115.5686 C64.3635,115.7646 64.2655,115.8636 64.0685,115.8636 L62.6175,115.8636 C62.4115,115.8636 62.3075,115.7646 62.3075,115.5686 L62.3075,110.0236 C62.3075,109.3816 62.3765,108.8366 62.5155,108.3896 C62.6555,107.9436 62.8745,107.5796 63.1745,107.2996 C63.4745,107.0166 63.8625,106.8126 64.3355,106.6826 C64.8115,106.5526 65.3895,106.4876 66.0695,106.4876 L71.9795,106.4876 Z" id="Fill-31" fill="#F6931E"></path>
            <path d="M77.0176,111.2689 L82.1636,111.2689 C82.6206,111.2689 82.9416,111.1719 83.1296,110.9749 C83.3176,110.7789 83.4126,110.4799 83.4126,110.0779 L83.4126,109.5149 C83.4126,109.1139 83.3176,108.8139 83.1296,108.6179 C82.9416,108.4219 82.6206,108.3239 82.1636,108.3239 L77.1926,108.3239 C77.0756,108.3239 77.0176,108.3769 77.0176,108.4829 L77.0176,111.2689 Z M82.5796,106.4879 C83.6096,106.4879 84.3476,106.7199 84.7956,107.1839 C85.2446,107.6489 85.4666,108.3359 85.4666,109.2469 L85.4666,110.0099 C85.4666,110.7789 85.3096,111.3849 84.9966,111.8319 C84.6836,112.2789 84.1726,112.5639 83.4656,112.6889 L85.7626,115.5289 C85.8076,115.5739 85.8216,115.6399 85.8026,115.7299 C85.7856,115.8189 85.7126,115.8639 85.5876,115.8639 L83.8556,115.8639 C83.7396,115.8639 83.6586,115.8489 83.6136,115.8239 C83.5686,115.7959 83.5236,115.7519 83.4796,115.6889 L81.3576,112.9039 L77.0176,112.9039 L77.0176,115.5689 C77.0176,115.7649 76.9186,115.8639 76.7216,115.8639 L75.2716,115.8639 C75.0656,115.8639 74.9626,115.7649 74.9626,115.5689 L74.9626,106.8899 C74.9626,106.6219 75.0966,106.4879 75.3666,106.4879 L82.5796,106.4879 Z" id="Fill-33" fill="#F6931E"></path>
            <path d="M90.2236,106.4876 C90.4196,106.4876 90.5186,106.5866 90.5186,106.7826 L90.5186,115.5686 C90.5186,115.7646 90.4196,115.8636 90.2236,115.8636 L88.7726,115.8636 C88.5666,115.8636 88.4636,115.7646 88.4636,115.5686 L88.4636,106.7826 C88.4636,106.5866 88.5666,106.4876 88.7726,106.4876 L90.2236,106.4876 Z" id="Fill-35" fill="#F6931E"></path>
            <path d="M103.2129,106.4876 C103.4189,106.4876 103.5229,106.5866 103.5229,106.7826 L103.5229,108.0546 C103.5229,108.2516 103.4189,108.3496 103.2129,108.3496 L97.3429,108.3496 C96.9929,108.3496 96.7049,108.3786 96.4769,108.4366 C96.2479,108.4956 96.0649,108.5926 95.9269,108.7316 C95.7869,108.8696 95.6909,109.0566 95.6369,109.2946 C95.5829,109.5316 95.5559,109.8236 95.5559,110.1716 L95.5559,110.3046 L103.1469,110.3046 C103.3429,110.3046 103.4419,110.4036 103.4419,110.5986 L103.4419,111.6576 C103.4419,111.8536 103.3429,111.9526 103.1469,111.9526 L95.5559,111.9526 L95.5559,112.1796 C95.5559,112.5276 95.5829,112.8216 95.6369,113.0566 C95.6909,113.2946 95.7869,113.4816 95.9269,113.6196 C96.0649,113.7586 96.2479,113.8566 96.4769,113.9146 C96.7049,113.9726 96.9929,114.0016 97.3429,114.0016 L103.2129,114.0016 C103.4189,114.0016 103.5229,114.0996 103.5229,114.2966 L103.5229,115.5686 C103.5229,115.7646 103.4189,115.8636 103.2129,115.8636 L97.3029,115.8636 C96.6229,115.8636 96.0449,115.8006 95.5689,115.6756 C95.0959,115.5506 94.7069,115.3476 94.4079,115.0656 C94.1079,114.7856 93.8889,114.4196 93.7489,113.9676 C93.6099,113.5176 93.5409,112.9696 93.5409,112.3276 L93.5409,110.0236 C93.5409,109.3816 93.6099,108.8366 93.7489,108.3896 C93.8889,107.9436 94.1079,107.5796 94.4079,107.2996 C94.7069,107.0166 95.0959,106.8126 95.5689,106.6826 C96.0449,106.5526 96.6229,106.4876 97.3029,106.4876 L103.2129,106.4876 Z" id="Fill-37" fill="#F6931E"></path>
            <path d="M108.8018,106.4876 C109.0158,106.4876 109.1958,106.4966 109.3388,106.5156 C109.4818,106.5326 109.6078,106.5706 109.7148,106.6296 C109.8228,106.6866 109.9258,106.7676 110.0248,106.8696 C110.1228,106.9716 110.2338,107.1096 110.3598,107.2776 L115.3568,113.8146 C115.3928,113.8776 115.4508,113.9076 115.5308,113.9076 L115.6528,113.9076 C115.7238,113.9076 115.7598,113.8626 115.7598,113.7726 L115.7598,106.7826 C115.7598,106.5866 115.8588,106.4876 116.0558,106.4876 L117.4668,106.4876 C117.6618,106.4876 117.7608,106.5866 117.7608,106.7826 L117.7608,114.4706 C117.7608,115.0146 117.6618,115.3836 117.4668,115.5746 C117.2698,115.7666 116.9638,115.8636 116.5518,115.8636 L115.3968,115.8636 C115.1908,115.8636 115.0188,115.8546 114.8798,115.8376 C114.7408,115.8186 114.6178,115.7836 114.5108,115.7296 C114.4038,115.6756 114.2968,115.5966 114.1958,115.4956 C114.0918,115.3926 113.9728,115.2516 113.8398,115.0736 L108.8288,108.5366 C108.7758,108.4736 108.7168,108.4426 108.6548,108.4426 L108.5328,108.4426 C108.4608,108.4426 108.4258,108.4876 108.4258,108.5776 L108.4258,115.5686 C108.4258,115.7646 108.3268,115.8636 108.1298,115.8636 L106.7188,115.8636 C106.5128,115.8636 106.4108,115.7646 106.4108,115.5686 L106.4108,107.8806 C106.4108,107.3366 106.5078,106.9676 106.7048,106.7766 C106.9028,106.5846 107.2068,106.4876 107.6198,106.4876 L108.8018,106.4876 Z" id="Fill-39" fill="#F6931E"></path>
            <path d="M122.9463,113.8265 C122.9463,113.9425 123.0043,114.0015 123.1213,114.0015 L127.5263,114.0015 C127.9213,114.0015 128.2533,113.9655 128.5203,113.8935 C128.7893,113.8235 129.0063,113.7075 129.1723,113.5465 C129.3383,113.3855 129.4573,113.1705 129.5293,112.9035 C129.6003,112.6355 129.6363,112.3055 129.6363,111.9115 L129.6363,110.4395 C129.6363,110.0465 129.6003,109.7165 129.5293,109.4475 C129.4573,109.1805 129.3383,108.9665 129.1723,108.8055 C129.0063,108.6435 128.7893,108.5275 128.5203,108.4575 C128.2533,108.3865 127.9213,108.3495 127.5263,108.3495 L123.1213,108.3495 C123.0043,108.3495 122.9463,108.4125 122.9463,108.5365 L122.9463,113.8265 Z M127.5803,106.4875 C128.3063,106.4875 128.9283,106.5615 129.4483,106.7095 C129.9673,106.8555 130.3923,107.0845 130.7243,107.3925 C131.0543,107.7005 131.3003,108.0945 131.4573,108.5705 C131.6123,109.0485 131.6913,109.6135 131.6913,110.2645 L131.6913,112.0865 C131.6913,112.7375 131.6123,113.3035 131.4573,113.7805 C131.3003,114.2585 131.0543,114.6515 130.7243,114.9585 C130.3923,115.2665 129.9673,115.4955 129.4483,115.6415 C128.9283,115.7895 128.3063,115.8635 127.5803,115.8635 L121.2943,115.8635 C121.0243,115.8635 120.8913,115.7295 120.8913,115.4615 L120.8913,106.8895 C120.8913,106.6215 121.0243,106.4875 121.2943,106.4875 L127.5803,106.4875 Z" id="Fill-41" fill="#F6931E"></path>
            <path d="M142.3164,106.4876 C142.5134,106.4876 142.6124,106.5866 142.6124,106.7826 L142.6124,115.5686 C142.6124,115.7646 142.5134,115.8636 142.3164,115.8636 L140.8654,115.8636 C140.6594,115.8636 140.5574,115.7646 140.5574,115.5686 L140.5574,106.7826 C140.5574,106.5866 140.6594,106.4876 140.8654,106.4876 L142.3164,106.4876 Z" id="Fill-43" fill="#F6931E"></path>
            <path d="M148.1328,106.4876 C148.3478,106.4876 148.5278,106.4966 148.6708,106.5156 C148.8138,106.5326 148.9398,106.5706 149.0468,106.6296 C149.1538,106.6866 149.2578,106.7676 149.3568,106.8696 C149.4538,106.9716 149.5658,107.1096 149.6918,107.2776 L154.6888,113.8146 C154.7248,113.8776 154.7828,113.9076 154.8628,113.9076 L154.9848,113.9076 C155.0558,113.9076 155.0918,113.8626 155.0918,113.7726 L155.0918,106.7826 C155.0918,106.5866 155.1908,106.4876 155.3878,106.4876 L156.7988,106.4876 C156.9938,106.4876 157.0928,106.5866 157.0928,106.7826 L157.0928,114.4706 C157.0928,115.0146 156.9938,115.3836 156.7988,115.5746 C156.6018,115.7666 156.2958,115.8636 155.8838,115.8636 L154.7288,115.8636 C154.5228,115.8636 154.3508,115.8546 154.2118,115.8376 C154.0728,115.8186 153.9498,115.7836 153.8428,115.7296 C153.7358,115.6756 153.6288,115.5966 153.5278,115.4956 C153.4238,115.3926 153.3048,115.2516 153.1718,115.0736 L148.1608,108.5366 C148.1078,108.4736 148.0488,108.4426 147.9868,108.4426 L147.8648,108.4426 C147.7928,108.4426 147.7578,108.4876 147.7578,108.5776 L147.7578,115.5686 C147.7578,115.7646 147.6588,115.8636 147.4618,115.8636 L146.0508,115.8636 C145.8448,115.8636 145.7428,115.7646 145.7428,115.5686 L145.7428,107.8806 C145.7428,107.3366 145.8398,106.9676 146.0368,106.7766 C146.2348,106.5846 146.5388,106.4876 146.9518,106.4876 L148.1328,106.4876 Z" id="Fill-45" fill="#F6931E"></path>
            <path d="M168.1221,111.2689 L173.2681,111.2689 C173.7251,111.2689 174.0471,111.1719 174.2341,110.9749 C174.4221,110.7789 174.5171,110.4799 174.5171,110.0779 L174.5171,109.5149 C174.5171,109.1139 174.4221,108.8139 174.2341,108.6179 C174.0471,108.4219 173.7251,108.3239 173.2681,108.3239 L168.2971,108.3239 C168.1801,108.3239 168.1221,108.3769 168.1221,108.4829 L168.1221,111.2689 Z M173.6841,106.4879 C174.7141,106.4879 175.4521,106.7199 175.9001,107.1839 C176.3491,107.6489 176.5711,108.3359 176.5711,109.2469 L176.5711,110.0099 C176.5711,110.7789 176.4141,111.3849 176.1011,111.8319 C175.7881,112.2789 175.2781,112.5639 174.5701,112.6889 L176.8671,115.5289 C176.9121,115.5739 176.9261,115.6399 176.9071,115.7299 C176.8901,115.8189 176.8171,115.8639 176.6921,115.8639 L174.9601,115.8639 C174.8441,115.8639 174.7631,115.8489 174.7181,115.8239 C174.6731,115.7959 174.6281,115.7519 174.5841,115.6889 L172.4621,112.9039 L168.1221,112.9039 L168.1221,115.5689 C168.1221,115.7649 168.0231,115.8639 167.8271,115.8639 L166.3761,115.8639 C166.1701,115.8639 166.0671,115.7649 166.0671,115.5689 L166.0671,106.8899 C166.0671,106.6219 166.2011,106.4879 166.4711,106.4879 L173.6841,106.4879 Z" id="Fill-47" fill="#F6931E"></path>
            <path d="M188.8906,106.4876 C189.0956,106.4876 189.1996,106.5866 189.1996,106.7826 L189.1996,108.0546 C189.1996,108.2516 189.0956,108.3496 188.8906,108.3496 L183.0196,108.3496 C182.6706,108.3496 182.3816,108.3786 182.1546,108.4366 C181.9256,108.4956 181.7426,108.5926 181.6036,108.7316 C181.4636,108.8696 181.3686,109.0566 181.3146,109.2946 C181.2606,109.5316 181.2336,109.8236 181.2336,110.1716 L181.2336,110.3046 L188.8246,110.3046 C189.0196,110.3046 189.1186,110.4036 189.1186,110.5986 L189.1186,111.6576 C189.1186,111.8536 189.0196,111.9526 188.8246,111.9526 L181.2336,111.9526 L181.2336,112.1796 C181.2336,112.5276 181.2606,112.8216 181.3146,113.0566 C181.3686,113.2946 181.4636,113.4816 181.6036,113.6196 C181.7426,113.7586 181.9256,113.8566 182.1546,113.9146 C182.3816,113.9726 182.6706,114.0016 183.0196,114.0016 L188.8906,114.0016 C189.0956,114.0016 189.1996,114.0996 189.1996,114.2966 L189.1996,115.5686 C189.1996,115.7646 189.0956,115.8636 188.8906,115.8636 L182.9796,115.8636 C182.2996,115.8636 181.7226,115.8006 181.2466,115.6756 C180.7726,115.5506 180.3846,115.3476 180.0846,115.0656 C179.7846,114.7856 179.5666,114.4196 179.4266,113.9676 C179.2876,113.5176 179.2176,112.9696 179.2176,112.3276 L179.2176,110.0236 C179.2176,109.3816 179.2876,108.8366 179.4266,108.3896 C179.5666,107.9436 179.7846,107.5796 180.0846,107.2996 C180.3846,107.0166 180.7726,106.8126 181.2466,106.6826 C181.7226,106.5526 182.2996,106.4876 182.9796,106.4876 L188.8906,106.4876 Z" id="Fill-49" fill="#F6931E"></path>
            <path d="M195.4453,112.4085 L200.0673,112.4085 L197.9303,108.4825 C197.8943,108.4225 197.8453,108.3895 197.7833,108.3895 L197.7023,108.3895 C197.6403,108.3895 197.5903,108.4225 197.5553,108.4825 L195.4453,112.4085 Z M198.0513,106.4875 C198.3923,106.4875 198.6783,106.5575 198.9113,106.6955 C199.1443,106.8355 199.3733,107.1045 199.5963,107.5065 L204.0433,115.5545 C204.088263,115.6445 204.0993,115.7185 204.0773,115.7755 C204.0543,115.8345 203.9893,115.8635 203.8823,115.8635 L202.1753,115.8635 C202.0233,115.8635 201.9213,115.8055 201.8673,115.6885 L200.9133,113.9615 L194.5993,113.9615 L193.6733,115.6885 C193.6103,115.8055 193.5073,115.8635 193.3633,115.8635 L191.6173,115.8635 C191.5003,115.8635 191.4313,115.8345 191.4093,115.7755 C191.3863,115.7185 191.3983,115.6445 191.4433,115.5545 L195.8483,107.5065 C196.0733,107.1045 196.2933,106.8355 196.5073,106.6955 C196.7213,106.5575 196.9723,106.4875 197.2593,106.4875 L198.0513,106.4875 Z" id="Fill-51" fill="#F6931E"></path>
            <path d="M208.584,113.8265 C208.584,113.9425 208.641,114.0015 208.758,114.0015 L213.164,114.0015 C213.559,114.0015 213.89,113.9655 214.158,113.8935 C214.427,113.8235 214.644,113.7075 214.81,113.5465 C214.976,113.3855 215.094,113.1705 215.166,112.9035 C215.237,112.6355 215.273,112.3055 215.273,111.9115 L215.273,110.4395 C215.273,110.0465 215.237,109.7165 215.166,109.4475 C215.094,109.1805 214.976,108.9665 214.81,108.8055 C214.644,108.6435 214.427,108.5275 214.158,108.4575 C213.89,108.3865 213.559,108.3495 213.164,108.3495 L208.758,108.3495 C208.641,108.3495 208.584,108.4125 208.584,108.5365 L208.584,113.8265 Z M213.218,106.4875 C213.943,106.4875 214.566,106.5615 215.085,106.7095 C215.605,106.8555 216.029,107.0845 216.361,107.3925 C216.692,107.7005 216.937,108.0945 217.094,108.5705 C217.25,109.0485 217.329,109.6135 217.329,110.2645 L217.329,112.0865 C217.329,112.7375 217.25,113.3035 217.094,113.7805 C216.937,114.2585 216.692,114.6515 216.361,114.9585 C216.029,115.2665 215.605,115.4955 215.085,115.6415 C214.566,115.7895 213.943,115.8635 213.218,115.8635 L206.932,115.8635 C206.662,115.8635 206.528,115.7295 206.528,115.4615 L206.528,106.8895 C206.528,106.6215 206.662,106.4875 206.932,106.4875 L213.218,106.4875 Z" id="Fill-53" fill="#F6931E"></path>
            <path d="M222.1113,106.4876 C222.3083,106.4876 222.4063,106.5866 222.4063,106.7826 L222.4063,115.5686 C222.4063,115.7646 222.3083,115.8636 222.1113,115.8636 L220.6603,115.8636 C220.4543,115.8636 220.3513,115.7646 220.3513,115.5686 L220.3513,106.7826 C220.3513,106.5866 220.4543,106.4876 220.6603,106.4876 L222.1113,106.4876 Z" id="Fill-55" fill="#F6931E"></path>
            <path d="M227.9277,106.4876 C228.1427,106.4876 228.3227,106.4966 228.4657,106.5156 C228.6077,106.5326 228.7337,106.5706 228.8407,106.6296 C228.9487,106.6866 229.0517,106.7676 229.1507,106.8696 C229.2487,106.9716 229.3607,107.1096 229.4867,107.2776 L234.4837,113.8146 C234.5197,113.8776 234.5777,113.9076 234.6567,113.9076 L234.7787,113.9076 C234.8497,113.9076 234.8857,113.8626 234.8857,113.7726 L234.8857,106.7826 C234.8857,106.5866 234.9847,106.4876 235.1817,106.4876 L236.5927,106.4876 C236.7887,106.4876 236.8877,106.5866 236.8877,106.7826 L236.8877,114.4706 C236.8877,115.0146 236.7887,115.3836 236.5927,115.5746 C236.3957,115.7666 236.0897,115.8636 235.6787,115.8636 L234.5237,115.8636 C234.3177,115.8636 234.1447,115.8546 234.0067,115.8376 C233.8677,115.8186 233.7437,115.7836 233.6367,115.7296 C233.5307,115.6756 233.4237,115.5966 233.3217,115.4956 C233.2177,115.3926 233.0997,115.2516 232.9657,115.0736 L227.9547,108.5366 C227.9017,108.4736 227.8427,108.4426 227.7807,108.4426 L227.6587,108.4426 C227.5867,108.4426 227.5517,108.4876 227.5517,108.5776 L227.5517,115.5686 C227.5517,115.7646 227.4527,115.8636 227.2567,115.8636 L225.8457,115.8636 C225.6397,115.8636 225.5367,115.7646 225.5367,115.5686 L225.5367,107.8806 C225.5367,107.3366 225.6347,106.9676 225.8317,106.7766 C226.0287,106.5846 226.3327,106.4876 226.7457,106.4876 L227.9277,106.4876 Z" id="Fill-57" fill="#F6931E"></path>
            <path d="M250.4824,106.4876 C250.6794,106.4876 250.7774,106.5866 250.7774,106.7826 L250.7774,108.0946 C250.7774,108.3006 250.6794,108.4036 250.4824,108.4036 L243.7524,108.4036 C243.4024,108.4036 243.1134,108.4316 242.8844,108.4906 C242.6564,108.5486 242.4754,108.6466 242.3404,108.7856 C242.2074,108.9236 242.1104,109.1076 242.0524,109.3406 C241.9944,109.5736 241.9654,109.8686 241.9654,110.2246 L241.9654,112.1536 C241.9654,112.5106 241.9944,112.8076 242.0524,113.0436 C242.1104,113.2806 242.2074,113.4666 242.3404,113.6056 C242.4754,113.7446 242.6564,113.8426 242.8844,113.9006 C243.1134,113.9596 243.4024,113.9876 243.7524,113.9876 L248.1854,113.9876 C248.4174,113.9876 248.5874,113.9276 248.6954,113.8066 C248.8024,113.6866 248.8564,113.4746 248.8564,113.1706 L248.8564,112.0866 C248.8564,111.9696 248.8024,111.9116 248.6954,111.9116 L244.7584,111.9116 C244.5614,111.9116 244.4624,111.8096 244.4624,111.6046 L244.4624,110.5986 C244.4624,110.3946 244.5614,110.2926 244.7584,110.2926 L250.3614,110.2926 C250.6284,110.2926 250.7634,110.4256 250.7634,110.6936 L250.7634,113.8146 C250.7634,114.5646 250.6204,115.0926 250.3344,115.4016 C250.0474,115.7096 249.6354,115.8636 249.0984,115.8636 L243.6704,115.8636 C242.9914,115.8636 242.4134,115.8006 241.9374,115.6756 C241.4634,115.5506 241.0764,115.3476 240.7764,115.0656 C240.4754,114.7856 240.2564,114.4196 240.1174,113.9676 C239.9794,113.5176 239.9094,112.9696 239.9094,112.3276 L239.9094,110.0236 C239.9094,109.3816 239.9794,108.8366 240.1174,108.3896 C240.2564,107.9436 240.4754,107.5796 240.7764,107.2996 C241.0764,107.0166 241.4634,106.8126 241.9374,106.6826 C242.4134,106.5526 242.9914,106.4876 243.6704,106.4876 L250.4824,106.4876 Z" id="Fill-59" fill="#F6931E"></path>
            <polygon id="Fill-63" fill="#F6931E" points="111.722 21.707 116.248 21.707 116.248 17.182 111.722 17.182"></polygon>
            <polygon id="Fill-64" fill="#F6931E" points="115.13 15.447 118.16 15.447 118.16 12.418 115.13 12.418"></polygon>
            <polygon id="Fill-65" fill="#F6931E" points="120.614 16.467 122.654 16.467 122.654 14.426 120.614 14.426"></polygon>
        </g>
    </g>
</svg>